<?xml version="1.0" encoding="UTF-8"?>
<svg xmlns="http://www.w3.org/2000/svg" version="1.1" viewBox="0 0 120 120">
  <!-- Generator: Adobe Illustrator 28.7.2, SVG Export Plug-In . SVG Version: 1.2.0 Build 154)  -->
  <g>
    <g id="Graphic_Element">
      <path d="M94.7,14.3H25.3c-6,0-10.9,4.9-10.9,10.9v69.5c0,6,4.9,10.9,10.9,10.9h69.5c6,0,10.9-4.9,10.9-10.9V25.3c0-6-4.9-10.9-10.9-10.9ZM78.6,86.9s-3.7,4.7-15.8,2.5c-7.3-1.3-16.2-10-19.4-13.3-3.3-3.2-12-12.1-13.3-19.4-2.1-12,2.5-15.8,2.5-15.8,1.7-3.1,5.8-5.3,8.4-2.7l8.5,8.5c2.5,2.5,1,7.2-2.7,8.4l-2.7.3c-1.8.2-3,2.2-2.3,3.8,2,4.1,5.9,8.5,7.8,10.5,2.1,2,6.4,5.9,10.5,7.8,1.6.8,3.6-.4,3.8-2.3l.3-2.7c1.2-3.7,5.8-5.2,8.4-2.7l8.5,8.5c2.6,2.6.4,6.7-2.7,8.4ZM54.6,45.2c0-2,1.7-3.6,3.6-3.4,5,.5,9.9,2.7,13.7,6.5,3.8,3.8,6,8.7,6.5,13.7.2,2-1.4,3.7-3.4,3.6-1.7,0-3.1-1.3-3.3-3-.4-3.5-1.9-6.9-4.6-9.6-2.7-2.7-6.1-4.2-9.6-4.6-1.7-.2-3-1.6-3-3.3ZM87.1,65.9h0c-1.8,0-3.2-1.4-3.3-3.2-.4-6.5-3.1-12.9-8.1-17.9-5-5-11.4-7.7-17.9-8.1-1.8-.1-3.2-1.5-3.2-3.3h0c0-1.9,1.6-3.5,3.5-3.4,8.2.5,16.2,3.8,22.4,10.1,6.2,6.2,9.6,14.2,10.1,22.4.1,1.9-1.5,3.5-3.4,3.5Z"/>
    </g>
  </g>
</svg>